<svg width="20" height="20" viewBox="0 0 20 20" fill="none" xmlns="http://www.w3.org/2000/svg">
<g clip-path="url(#clip0)">
<path d="M15.9493 3.84824L14.6742 18.3785H5.32606L4.05121 3.84824L2.43582 3.98985L3.73395 18.7836C3.80227 19.4655 4.39391 20.0001 5.08121 20.0001H14.9191C15.6061 20.0001 16.198 19.4658 16.2674 18.7739L17.5647 3.98985L15.9493 3.84824Z" fill="white"/>
<path d="M12.973 0H7.02703C6.28187 0 5.67566 0.606211 5.67566 1.35137V3.91895H7.29726V1.6216H12.7027V3.91891H14.3243V1.35133C14.3243 0.606211 13.7181 0 12.973 0Z" fill="white"/>
<path d="M18.6488 3.10801H1.3515C0.903649 3.10801 0.54068 3.47097 0.54068 3.91883C0.54068 4.36668 0.903649 4.72965 1.3515 4.72965H18.6488C19.0967 4.72965 19.4596 4.36668 19.4596 3.91883C19.4596 3.47097 19.0966 3.10801 18.6488 3.10801Z" fill="white"/>
</g>
<defs>
<clipPath id="clip0">
<rect width="20" height="20" fill="white"/>
</clipPath>
</defs>
</svg>
