<svg width="27" height="26" viewBox="0 0 27 26" fill="none" xmlns="http://www.w3.org/2000/svg">
<path d="M15.8646 13L25.5863 3.2779C25.8537 3.01028 26.0013 2.65323 26.0017 2.27251C26.0017 1.89157 25.8541 1.5341 25.5863 1.2669L24.7344 0.415181C24.4665 0.14692 24.1095 0 23.7283 0C23.3478 0 22.9908 0.14692 22.7229 0.415181L13.0013 10.1366L3.27917 0.415181C3.01176 0.14692 2.6545 0 2.27356 0C1.89305 0 1.53579 0.14692 1.26838 0.415181L0.416027 1.2669C-0.138676 1.8216 -0.138676 2.72384 0.416027 3.2779L10.1379 13L0.416027 22.7217C0.1484 22.9897 0.00105698 23.3468 0.00105698 23.7275C0.00105698 24.1082 0.1484 24.4653 0.416027 24.7331L1.26816 25.5848C1.53558 25.8529 1.89305 26 2.27335 26C2.65429 26 3.01155 25.8529 3.27896 25.5848L13.0011 15.8631L22.7227 25.5848C22.9906 25.8529 23.3476 26 23.7281 26H23.7286C24.1093 26 24.4663 25.8529 24.7342 25.5848L25.5861 24.7331C25.8535 24.4655 26.0011 24.1082 26.0011 23.7275C26.0011 23.3468 25.8535 22.9897 25.5861 22.7219L15.8646 13Z" fill="white"/>
</svg>
