<svg width="18" height="18" viewBox="0 0 18 18" fill="none" xmlns="http://www.w3.org/2000/svg">
<path d="M15.4951 1.23588C14.5879 0.330247 13.1187 0.330247 12.2115 1.23588L11.3895 2.06235L2.63981 10.8074L2.62122 10.8261C2.61671 10.8306 2.61671 10.8354 2.61192 10.8354C2.60262 10.8494 2.58868 10.8632 2.57952 10.8771C2.57952 10.8818 2.57473 10.8818 2.57473 10.8864C2.56543 10.9004 2.56093 10.9097 2.55148 10.9236C2.54698 10.9283 2.54698 10.9328 2.54233 10.9376C2.53768 10.9515 2.53304 10.9608 2.52824 10.9747C2.52824 10.9793 2.52374 10.9793 2.52374 10.984L0.582444 16.8217C0.525497 16.9879 0.568788 17.172 0.693869 17.2953C0.78176 17.382 0.900303 17.4306 1.02364 17.4301C1.07405 17.4293 1.12402 17.4214 1.17226 17.4069L7.00543 15.4609C7.00994 15.4609 7.00994 15.4609 7.01473 15.4564C7.0294 15.4521 7.0435 15.4458 7.05643 15.4377C7.06006 15.4373 7.06325 15.4357 7.06587 15.4332C7.07967 15.4239 7.09826 15.4145 7.11221 15.4052C7.12601 15.396 7.1401 15.3821 7.15405 15.3728C7.1587 15.368 7.1632 15.368 7.1632 15.3635C7.168 15.3588 7.17729 15.3543 7.18194 15.3449L16.7536 5.77322C17.6592 4.86598 17.6592 3.39683 16.7536 2.48974L15.4951 1.23588ZM6.85682 14.3695L3.62448 11.1373L11.7146 3.04716L14.947 6.27935L6.85682 14.3695ZM3.16919 11.9965L5.99302 14.8201L1.75277 16.2319L3.16919 11.9965ZM16.0988 5.12297L15.6065 5.61996L12.374 2.38747L12.8712 1.89063C13.4149 1.34731 14.2963 1.34731 14.8402 1.89063L16.1033 3.15379C16.643 3.70002 16.641 4.57936 16.0988 5.12297Z" fill="white"/>
</svg>
