<svg width="20" height="20" viewBox="0 0 20 20" fill="none" xmlns="http://www.w3.org/2000/svg">
<path d="M11.0182 8.90651L11.0181 1.48441C11.018 1.28017 10.938 1.08756 10.7929 0.942065C10.6475 0.796654 10.4547 0.716524 10.2504 0.716766L9.60012 0.716848C9.39548 0.716686 9.2031 0.796896 9.05761 0.942388C8.91236 1.08764 8.83215 1.28001 8.83231 1.48465L8.83223 8.90651L1.41021 8.90675C1.20573 8.90643 1.01328 8.98672 0.867867 9.13213C0.722617 9.27738 0.642327 9.46984 0.642649 9.67432L0.642407 10.3248C0.642407 10.7483 0.98681 11.0927 1.41005 11.0924L8.83223 11.0925L8.83215 18.5145C8.83231 18.719 8.91236 18.9116 9.05769 19.0569C9.20302 19.2022 9.39556 19.2823 9.59996 19.2823L10.2504 19.2822C10.4548 19.2824 10.6474 19.2021 10.7925 19.057C10.938 18.9116 11.0182 18.719 11.0179 18.5146L11.0181 11.0925H18.44C18.6446 11.0926 18.837 11.0125 18.9823 10.8672L18.9824 10.8671C19.1278 10.7217 19.2079 10.5293 19.2078 10.3247L19.2079 9.6744C19.2078 9.47016 19.1278 9.27746 18.9824 9.13213C18.8371 8.9868 18.6445 8.90683 18.4402 8.90667L11.0182 8.90651Z" fill="white"/>
</svg>
